# xmcd
#
# Track frame offsets:
#	150
#	13385
#	25787
#	41080
#	56662
#	73495
#	90474
#	105844
#	120507
#	137430
#	153176
#	168877
#	183877
#	206725
#	219810
#	232961
#
# Disc length: 3307 seconds
#
# Revision: 1
# Processed by: cddbd v1.5.1PL0 Copyright (c) Steve Scherf et al.
# Submitted via: CDex 1.50Beta5
#
DISCID=cb0ce910
DTITLE=アンサンブル・アカデミア - ビッグ・ヒット・マーチ2003
DYEAR=1900
DGENRE=
TTITLE0=大きな古時計
TTITLE1=亜麻色の髪の乙女
TTITLE2=SAKURAドロップス
TTITLE3=地上の星
TTITLE4=きよしのズンドコ節
TTITLE5=Do it! Now
TTITLE6=鉄腕アトム
TTITLE7=ひょっこりひょうたん島
TTITLE8=カナシミブルー
TTITLE9=またあえる日まで
TTITLE10=島唄
TTITLE11=Voyage
TTITLE12=Yeah!めちゃホリディ〜緋色片想い
TTITLE13=小さな恋のうた
TTITLE14=かっぱマキマーチ
TTITLE15=おさかな天国
EXTD=
EXTT0=
EXTT1=
EXTT2=
EXTT3=
EXTT4=
EXTT5=
EXTT6=
EXTT7=
EXTT8=
EXTT9=
EXTT10=
EXTT11=
EXTT12=
EXTT13=
EXTT14=
EXTT15=
PLAYORDER=
